<?xml version="1.0" standalone="no"?>
<!DOCTYPE svg PUBLIC "-//W3C//DTD SVG 20010904//EN"
 "http://www.w3.org/TR/2001/REC-SVG-20010904/DTD/svg10.dtd">
<svg version="1.0" xmlns="http://www.w3.org/2000/svg"
 width="200.000000pt" height="200.000000pt" viewBox="0 0 200.000000 200.000000"
 preserveAspectRatio="xMidYMid meet">

<g transform="translate(0.000000,200.000000) scale(0.100000,-0.100000)"
fill="#000000" stroke="none">
<path d="M800 1970 c-382 -81 -669 -359 -766 -740 -29 -115 -27 -364 4 -480
77 -283 266 -514 526 -640 168 -82 230 -95 441 -94 168 0 186 2 270 28 356
109 623 398 697 754 17 81 19 121 15 237 -8 189 -43 316 -131 465 -148 251
-389 420 -676 474 -109 21 -273 19 -380 -4z m439 -60 c270 -77 483 -249 599
-483 73 -148 102 -268 102 -427 0 -449 -313 -834 -752 -924 -99 -21 -277 -21
-376 0 -351 72 -633 342 -726 694 -24 88 -32 280 -16 376 64 399 373 710 778
784 83 16 308 4 391 -20z"/>
<path d="M810 1891 c-182 -39 -336 -126 -471 -269 -178 -188 -258 -406 -246
-672 19 -421 332 -775 751 -849 77 -14 235 -14 312 0 275 48 524 231 653 479
113 216 132 484 52 717 -82 238 -279 448 -510 544 -161 67 -368 86 -541 50z"/>
</g>
</svg>
